<svg viewBox="0 4 26 26" fill="#381ddb" version="2" xmlns="http://www.w3.org/2000/svg">
  <path
    d="M14.4631 20.4072C14.4631 20.9842 14.7253 21.2727 15.2497 21.2727C15.7942 21.2727 16.248 21.1617 16.6111 20.9398L16.4598 24.7017C15.4917 25.5672 14.4026 26 13.1924 26C10.9133 26 9.67296 25.0346 9.47127 23.1037C8.26113 25.0346 6.62745 26 4.57022 26C2.53315 26 1.21209 25.4895 0.607021 24.4686C0.203643 23.825 0.00195312 23.0926 0.00195312 22.2714C0.00195312 21.4503 0.0624599 20.6957 0.183474 20.0077L1.87766 9.52111H7.02074L5.59883 18.3764C5.53833 18.7759 5.50807 19.1754 5.50807 19.5749C5.50807 20.6402 6.05263 21.1728 7.14176 21.1728C8.04936 21.1728 8.77544 20.8288 9.32 20.1408L11.0444 9.52111H16.1875L14.4933 20.0077C14.4732 20.1408 14.4631 20.274 14.4631 20.4072Z" />
</svg>